<svg version="1.1" xmlns="http://www.w3.org/2000/svg" viewBox="0 0 2767.350315945865 1517.77850943299" width="2767.350315945865" height="1517.77850943299">
  <!-- svg-source:excalidraw -->
  
  <defs>
    <style class="style-fonts">
      @font-face {
        font-family: "Virgil";
        src: url("https://excalidraw.com/Virgil.woff2");
      }
      @font-face {
        font-family: "Cascadia";
        src: url("https://excalidraw.com/Cascadia.woff2");
      }
      @font-face {
        font-family: "Assistant";
        src: url("https://excalidraw.com/Assistant-Regular.woff2");
      }
    </style>
    
  </defs>
  <rect x="0" y="0" width="2767.350315945865" height="1517.77850943299" fill="#ffffff"></rect><g stroke-linecap="round" transform="translate(347.21465908856055 324.7961603532638) rotate(0 150.15848523353515 230.03001993222398)"><path d="M32 0 C86.52 -4.14, 146.47 -4.05, 268.32 0 C288.75 -0.73, 299.83 10.63, 300.32 32 C298.38 116.46, 298.55 203.83, 300.32 428.06 C301.26 448.45, 291.88 461.31, 268.32 460.06 C195.52 459.24, 123.46 457.76, 32 460.06 C8.58 460.29, -1.01 452.31, 0 428.06 C2.45 329.91, 2.89 230.74, 0 32 C3.13 12.22, 9.4 -3.4, 32 0" stroke="none" stroke-width="0" fill="#ffec99"></path><path d="M32 0 C120.3 -2.54, 209.45 -1.38, 268.32 0 M32 0 C97.09 0.15, 162.21 -0.79, 268.32 0 M268.32 0 C289.01 1.16, 300.59 10.41, 300.32 32 M268.32 0 C288.52 1.88, 298.43 9.31, 300.32 32 M300.32 32 C298.75 125.33, 300.7 218.66, 300.32 428.06 M300.32 32 C300.11 146.27, 300.03 260.53, 300.32 428.06 M300.32 428.06 C298.51 450.57, 291.4 459.89, 268.32 460.06 M300.32 428.06 C299.83 450.43, 287.82 461.27, 268.32 460.06 M268.32 460.06 C199.14 460.18, 132.15 462.01, 32 460.06 M268.32 460.06 C207.54 457.87, 147.62 458.56, 32 460.06 M32 460.06 C10.84 461.08, 1.13 448.44, 0 428.06 M32 460.06 C10.33 459.93, 1.92 448.09, 0 428.06 M0 428.06 C-1.61 332.85, -0.51 239.81, 0 32 M0 428.06 C0.17 335.27, -0.7 241.87, 0 32 M0 32 C0.74 11.54, 10.92 0.57, 32 0 M0 32 C-0.77 10.82, 10.44 1.65, 32 0" stroke="#1e1e1e" stroke-width="2" fill="none"></path></g><g transform="translate(363.1965696150645 519.8261802854878) rotate(0 134.1765747070313 35)"><text x="134.17657470703125" y="24.528" font-family="Virgil, Segoe UI Emoji" font-size="28px" fill="#1e1e1e" text-anchor="middle" style="white-space: pre;" direction="ltr" dominant-baseline="alphabetic">Hallucinate </text><text x="134.17657470703125" y="59.528" font-family="Virgil, Segoe UI Emoji" font-size="28px" fill="#1e1e1e" text-anchor="middle" style="white-space: pre;" direction="ltr" dominant-baseline="alphabetic">hypothetical Answer</text></g><g stroke-linecap="round" transform="translate(1066.3878859903991 1137.8135607086626) rotate(0 194.24757238721145 55.590588150287374)"><path d="M27.8 0 C129.68 0.68, 231.72 3.44, 360.7 0 C381.38 3.55, 386.42 8.61, 388.5 27.8 C390.01 41.09, 386.76 61.69, 388.5 83.39 C389.15 104.54, 379.05 110.52, 360.7 111.18 C235.61 109.02, 115.77 108.93, 27.8 111.18 C12.82 111.44, 0.73 105.35, 0 83.39 C-0.63 71.22, -1.46 53.84, 0 27.8 C1.58 12.4, 7.12 2.81, 27.8 0" stroke="none" stroke-width="0" fill="#b2f2bb"></path><path d="M27.8 0 C124.14 2.55, 218.39 0.93, 360.7 0 M27.8 0 C137.86 0.65, 248.57 0.72, 360.7 0 M360.7 0 C380.09 0.42, 387.05 8.08, 388.5 27.8 M360.7 0 C378.8 1.29, 390.37 7.58, 388.5 27.8 M388.5 27.8 C388.8 42.95, 388.06 61.42, 388.5 83.39 M388.5 27.8 C388.96 44.61, 388.06 63.09, 388.5 83.39 M388.5 83.39 C389.16 101.43, 379.8 111.67, 360.7 111.18 M388.5 83.39 C389.81 101.57, 377.38 110.9, 360.7 111.18 M360.7 111.18 C265.53 110.3, 171.26 109.92, 27.8 111.18 M360.7 111.18 C276.63 109.85, 192.29 109.61, 27.8 111.18 M27.8 111.18 C10.52 111.44, -0.93 100.36, 0 83.39 M27.8 111.18 C8.57 111.09, -1.55 101.63, 0 83.39 M0 83.39 C1.57 66.05, -0.06 48.7, 0 27.8 M0 83.39 C-1.26 72.7, -0.82 60.31, 0 27.8 M0 27.8 C1.97 9.73, 9.4 0.84, 27.8 0 M0 27.8 C-1.65 11.51, 11.53 -1.83, 27.8 0" stroke="#1e1e1e" stroke-width="2" fill="none"></path></g><g stroke-linecap="round" transform="translate(866.3895631048827 1319.9206598216736) rotate(0 376.35467150022214 93.9289248056582)"><path d="M32 0 C281.39 -1.16, 527.99 -0.14, 720.71 0 C744.99 1.52, 753.55 7.16, 752.71 32 C751.11 56.5, 755.8 88.26, 752.71 155.86 C751.05 178.12, 739.42 189.38, 720.71 187.86 C526 185.16, 331.92 184.7, 32 187.86 C7.89 189.41, 0.77 173.69, 0 155.86 C1.19 110.45, -2.19 71.43, 0 32 C-1.52 7.42, 13.01 -2.8, 32 0" stroke="none" stroke-width="0" fill="#99e9f2"></path><path d="M32 0 C187.89 1.74, 344.34 1.31, 720.71 0 M32 0 C174.5 0.13, 316.72 0.36, 720.71 0 M720.71 0 C741.66 -1.88, 754.5 10.25, 752.71 32 M720.71 0 C740.3 0.3, 751.62 12.02, 752.71 32 M752.71 32 C752.53 77.52, 754.23 119.7, 752.71 155.86 M752.71 32 C751.2 73.67, 752.4 117, 752.71 155.86 M752.71 155.86 C751.15 177.17, 741.63 187.42, 720.71 187.86 M752.71 155.86 C754.42 179.07, 739.94 188.3, 720.71 187.86 M720.71 187.86 C449.98 185.54, 180.62 185.03, 32 187.86 M720.71 187.86 C504.06 187.05, 288.21 187.49, 32 187.86 M32 187.86 C11.56 187.11, -1.32 175.44, 0 155.86 M32 187.86 C11.54 188.99, -0.23 177.02, 0 155.86 M0 155.86 C0.52 129.81, -0.23 100.67, 0 32 M0 155.86 C0.75 127.96, 1.79 97.33, 0 32 M0 32 C1.27 12.33, 11.06 -0.57, 32 0 M0 32 C-0.03 12.79, 9.8 -1.64, 32 0" stroke="#1e1e1e" stroke-width="2" fill="none"></path></g><g stroke-linecap="round" transform="translate(1305.2026972399894 687.1922986182781) rotate(0 83 103)"><path d="M32 0 C58.52 0.17, 86.82 -0.15, 134 0 M32 0 C58.54 -1.77, 86.65 -1.22, 134 0 M134 0 C156.86 -0.11, 167.22 9.74, 166 32 M134 0 C154.98 1.29, 166.86 9.73, 166 32 M166 32 C165.35 80.15, 168.37 127.85, 166 174 M166 32 C164.52 79.15, 165.2 125.4, 166 174 M166 174 C165.56 196.51, 153.58 206.53, 134 206 M166 174 C168.2 194.75, 153.05 205.12, 134 206 M134 206 C95.32 207.32, 54.17 206.89, 32 206 M134 206 C111.34 205.86, 88.39 206.81, 32 206 M32 206 C12.52 206.5, -1.53 196.96, 0 174 M32 206 C10.37 204.69, 2.1 196.83, 0 174 M0 174 C-0.19 115.58, -1.27 58.99, 0 32 M0 174 C-0.18 130.99, -0.34 87.3, 0 32 M0 32 C0.69 10.09, 9.41 -0.26, 32 0 M0 32 C0.31 12.64, 12.06 0.41, 32 0" stroke="#1e1e1e" stroke-width="2" fill="none"></path></g><g stroke-linecap="round" transform="translate(1294.2026972399894 697.1922986182781) rotate(0 83 103)"><path d="M32 0 C66.78 -2.89, 97.71 -2.27, 134 0 C157.34 -2.46, 169.44 11.47, 166 32 C164.61 69.64, 166.78 112.39, 166 174 C169.4 195.7, 155.8 205.33, 134 206 C104.14 202.99, 65.02 202.35, 32 206 C10.16 206.18, 2.73 192.86, 0 174 C-1.06 127.46, 1.66 85.18, 0 32 C3.48 9.85, 9.14 1.14, 32 0" stroke="none" stroke-width="0" fill="#ffffff"></path><path d="M32 0 C55.88 -1.7, 78.2 -1.63, 134 0 M32 0 C68.32 0.48, 107.28 0.57, 134 0 M134 0 C155.02 -1.9, 166.93 11.12, 166 32 M134 0 C155.4 -1.89, 164.27 12.72, 166 32 M166 32 C164.64 75.9, 166.33 116.4, 166 174 M166 32 C167.34 83.19, 166.38 133.36, 166 174 M166 174 C166.03 194.72, 154.12 207.22, 134 206 M166 174 C166.4 193.26, 156.28 205.37, 134 206 M134 206 C99.81 207.12, 67.37 206.76, 32 206 M134 206 C112.29 206.64, 92.06 206.72, 32 206 M32 206 C12.43 206.29, -0.73 195.67, 0 174 M32 206 C10.44 204.95, 0.12 197.5, 0 174 M0 174 C-0.76 126.18, -0.23 76.82, 0 32 M0 174 C-2.02 130.68, -1.63 85.3, 0 32 M0 32 C0.38 11, 9.55 1.4, 32 0 M0 32 C-0.85 8.82, 9.33 -0.1, 32 0" stroke="#1e1e1e" stroke-width="2" fill="none"></path></g><g stroke-linecap="round" transform="translate(1282.2026972399894 711.1922986182781) rotate(0 83 103)"><path d="M32 0 C53.69 1.3, 71.96 -4.91, 134 0 C156.24 -0.84, 167.25 10.47, 166 32 C167.17 67.16, 160.67 104.07, 166 174 C166.74 197.31, 157.08 208.65, 134 206 C95.5 204.04, 63.27 205.04, 32 206 C9.63 203.21, 0.59 194.55, 0 174 C2.91 135.05, -2.34 98.19, 0 32 C-0.78 8.53, 7.98 -2.73, 32 0" stroke="none" stroke-width="0" fill="#ffffff"></path><path d="M32 0 C73.34 0.82, 112.7 -1.19, 134 0 M32 0 C56.51 0.11, 79 -0.9, 134 0 M134 0 C157.07 1.69, 164.88 12.66, 166 32 M134 0 C155.11 0.99, 167.79 12.52, 166 32 M166 32 C166.17 85.59, 165.44 140.45, 166 174 M166 32 C164.57 82.96, 166.01 134.48, 166 174 M166 174 C165.24 193.96, 155.4 206.53, 134 206 M166 174 C167.76 197.12, 154.08 205.36, 134 206 M134 206 C99.21 204.35, 63.31 205.13, 32 206 M134 206 C104.64 206.79, 73.96 206.43, 32 206 M32 206 C8.8 206.48, 1.87 194.77, 0 174 M32 206 C9.26 204.41, 1.62 195.52, 0 174 M0 174 C-0.66 137.94, -1.97 101.65, 0 32 M0 174 C0.2 123.76, -0.24 73.83, 0 32 M0 32 C0.37 10.51, 11.56 -1.95, 32 0 M0 32 C-1.77 12.36, 10.62 0.65, 32 0" stroke="#1e1e1e" stroke-width="2" fill="none"></path></g><g transform="translate(1294.3227686511223 789.1922986182781) rotate(0 70.87992858886719 25)"><text x="70.87992858886719" y="17.52" font-family="Virgil, Segoe UI Emoji" font-size="20px" fill="#1e1e1e" text-anchor="middle" style="white-space: pre;" direction="ltr" dominant-baseline="alphabetic">Documentation</text><text x="70.87992858886719" y="42.519999999999996" font-family="Virgil, Segoe UI Emoji" font-size="20px" fill="#1e1e1e" text-anchor="middle" style="white-space: pre;" direction="ltr" dominant-baseline="alphabetic">(Markdown)</text></g><g stroke-linecap="round" transform="translate(1282.0109487318514 1144.4068392974034) rotate(0 82.4943432902329 49.065263002687516)"><path d="M24.53 0 C64.4 -0.14, 103.48 1.55, 140.46 0 C156.95 2.08, 166.43 4.67, 164.99 24.53 C165.82 39.99, 162.96 49.51, 164.99 73.6 C165.12 92.29, 157.13 99.13, 140.46 98.13 C92.84 97.43, 47.38 97.16, 24.53 98.13 C7.54 100.92, -1.16 86.77, 0 73.6 C0.15 60.26, 1.51 55.56, 0 24.53 C0.5 11.68, 11.28 -0.12, 24.53 0" stroke="none" stroke-width="0" fill="#ffffff"></path><path d="M24.53 0 C57.12 -0.01, 91.81 -1.5, 140.46 0 M24.53 0 C51.13 0.58, 78.02 0.61, 140.46 0 M140.46 0 C155.75 0.1, 165.52 8.36, 164.99 24.53 M140.46 0 C158.39 -1.5, 165.93 9.21, 164.99 24.53 M164.99 24.53 C164.93 35.07, 164.65 42.77, 164.99 73.6 M164.99 24.53 C165.2 36.23, 164.64 46.63, 164.99 73.6 M164.99 73.6 C163.51 89.06, 156.17 98.17, 140.46 98.13 M164.99 73.6 C165.37 90.8, 156.81 99.44, 140.46 98.13 M140.46 98.13 C114.68 98.98, 87.9 99.47, 24.53 98.13 M140.46 98.13 C115.94 99.88, 93.01 99.69, 24.53 98.13 M24.53 98.13 C8.24 97.35, 0.69 89.58, 0 73.6 M24.53 98.13 C7.22 97.72, -0.94 88.68, 0 73.6 M0 73.6 C1.81 56.1, -0.84 34.52, 0 24.53 M0 73.6 C-1.05 57.99, -0.28 41.66, 0 24.53 M0 24.53 C-1.86 8.76, 8.82 -1.29, 24.53 0 M0 24.53 C-1.35 8.66, 9.85 0.14, 24.53 0" stroke="#1e1e1e" stroke-width="2" fill="none"></path></g><g transform="translate(1307.5753451226701 1180.972102300091) rotate(0 56.92994689941406 12.5)"><text x="56.92994689941406" y="17.52" font-family="Virgil, Segoe UI Emoji" font-size="20px" fill="#1e1e1e" text-anchor="middle" style="white-space: pre;" direction="ltr" dominant-baseline="alphabetic">Block Chunk</text></g><g stroke-linecap="round" transform="translate(1124.031585437484 1346.5988571656212) rotate(0 91.66038143359219 30.194008001653856)"><path d="M15.1 0 C52.74 2.16, 90.64 3.1, 168.22 0 C178.69 2.24, 182.17 6.49, 183.32 15.1 C182.91 27.17, 181.36 37.26, 183.32 45.29 C180.35 54.87, 175.94 62.63, 168.22 60.39 C114.35 57.27, 57.22 56.26, 15.1 60.39 C8.18 57.47, 3.3 58.02, 0 45.29 C-2.14 39.15, -0.66 35.52, 0 15.1 C2.39 5.18, 2.74 -3.17, 15.1 0" stroke="none" stroke-width="0" fill="#ffffff"></path><path d="M15.1 0 C65.01 -0.75, 117.01 0.07, 168.22 0 M15.1 0 C56.67 0.35, 99.57 0.11, 168.22 0 M168.22 0 C179.61 -1.3, 184.72 4.7, 183.32 15.1 M168.22 0 C178.44 -1.52, 185.45 5.84, 183.32 15.1 M183.32 15.1 C181.83 22.09, 181.63 31.87, 183.32 45.29 M183.32 15.1 C182.42 22.03, 183.66 27.17, 183.32 45.29 M183.32 45.29 C181.94 53.87, 178.65 58.83, 168.22 60.39 M183.32 45.29 C182.81 55.47, 176.89 61.57, 168.22 60.39 M168.22 60.39 C110.99 63.04, 54.67 62.46, 15.1 60.39 M168.22 60.39 C123.94 61.45, 78.27 61, 15.1 60.39 M15.1 60.39 C3.57 62.27, 1.88 56.81, 0 45.29 M15.1 60.39 C7.31 60.63, -0.45 54.59, 0 45.29 M0 45.29 C-1.45 38.73, 0.72 32.38, 0 15.1 M0 45.29 C-0.23 35.46, 0.43 25, 0 15.1 M0 15.1 C1.73 4.43, 3.73 1.3, 15.1 0 M0 15.1 C1.77 6.53, 4.06 1.5, 15.1 0" stroke="#1e1e1e" stroke-width="2" fill="none"></path></g><g transform="translate(1141.5920370615058 1364.292865167275) rotate(0 74.09992980957031 12.5)"><text x="74.09992980957031" y="17.52" font-family="Virgil, Segoe UI Emoji" font-size="20px" fill="#1e1e1e" text-anchor="middle" style="white-space: pre;" direction="ltr" dominant-baseline="alphabetic">Sentence Chunk</text></g><g stroke-linecap="round" transform="translate(1271.2273744455465 1428.0148430272236) rotate(0 91.66038143359219 30.194008001653856)"><path d="M15.1 0 C49.46 0.72, 89.88 -1.29, 168.22 0 C175.25 2.8, 185.47 2.22, 183.32 15.1 C185.2 24.69, 180.97 34.64, 183.32 45.29 C185.02 57.11, 181.2 62.47, 168.22 60.39 C121.85 60.67, 77.04 62.69, 15.1 60.39 C5.13 61.25, -0.88 56.68, 0 45.29 C-1.49 40.53, -3.79 31.96, 0 15.1 C-2.93 3.96, 3.36 -0.69, 15.1 0" stroke="none" stroke-width="0" fill="#ffffff"></path><path d="M15.1 0 C73.35 0.32, 133.46 -0.01, 168.22 0 M15.1 0 C75.04 1.56, 133.82 1.73, 168.22 0 M168.22 0 C176.99 0.91, 181.33 6.06, 183.32 15.1 M168.22 0 C176.19 0.96, 182.32 5.59, 183.32 15.1 M183.32 15.1 C183.12 26.25, 183.63 37.11, 183.32 45.29 M183.32 15.1 C183.12 21.97, 182.83 29.44, 183.32 45.29 M183.32 45.29 C181.35 53.62, 179.5 61.89, 168.22 60.39 M183.32 45.29 C182.35 55.15, 179.09 60.57, 168.22 60.39 M168.22 60.39 C134.82 61.38, 102.15 59.89, 15.1 60.39 M168.22 60.39 C109.22 60.89, 50.71 61.34, 15.1 60.39 M15.1 60.39 C6.57 58.6, 1.09 54.05, 0 45.29 M15.1 60.39 C5.64 60.03, -1.54 53.97, 0 45.29 M0 45.29 C1.68 38.55, 1.41 31.68, 0 15.1 M0 45.29 C0.7 36.15, -0.49 27.5, 0 15.1 M0 15.1 C-0.99 5.16, 4.28 0.59, 15.1 0 M0 15.1 C1.64 3.06, 6.58 -0.62, 15.1 0" stroke="#1e1e1e" stroke-width="2" fill="none"></path></g><g transform="translate(1288.7878260695684 1445.7088510288775) rotate(0 74.09992980957031 12.5)"><text x="74.09992980957031" y="17.52" font-family="Virgil, Segoe UI Emoji" font-size="20px" fill="#1e1e1e" text-anchor="middle" style="white-space: pre;" direction="ltr" dominant-baseline="alphabetic">Sentence Chunk</text></g><g stroke-linecap="round" transform="translate(1416.8056273106633 1347.1380358799365) rotate(0 91.66038143359208 30.194008001653856)"><path d="M15.1 0 C72.4 -1.2, 132.67 1.47, 168.22 0 C174.94 1.14, 183.64 6.08, 183.32 15.1 C185.76 27.86, 181.84 34.01, 183.32 45.29 C183.04 54.03, 178.55 61.36, 168.22 60.39 C138.87 60.28, 100.58 57.7, 15.1 60.39 C5.54 61.36, -2.87 58.38, 0 45.29 C0.48 36.94, -2.87 31.77, 0 15.1 C-1.56 4.01, 3.19 0.69, 15.1 0" stroke="none" stroke-width="0" fill="#ffffff"></path><path d="M15.1 0 C69.95 0.65, 126.14 1.53, 168.22 0 M15.1 0 C45.24 -1.04, 76.22 -2.18, 168.22 0 M168.22 0 C178.97 0.59, 182.64 5.81, 183.32 15.1 M168.22 0 C178.72 -1.02, 181.93 5.65, 183.32 15.1 M183.32 15.1 C182.04 20.59, 182.22 29.34, 183.32 45.29 M183.32 15.1 C183.03 27.46, 182.65 38.93, 183.32 45.29 M183.32 45.29 C182.83 55.97, 178.84 61.49, 168.22 60.39 M183.32 45.29 C181.9 54.2, 179.18 61.97, 168.22 60.39 M168.22 60.39 C119.87 63.67, 71.14 61.72, 15.1 60.39 M168.22 60.39 C114.88 61.12, 60.53 62.1, 15.1 60.39 M15.1 60.39 C4.85 61.79, -0.23 53.5, 0 45.29 M15.1 60.39 C7.28 60.97, -1.55 53.96, 0 45.29 M0 45.29 C0.8 36.03, 0.25 23.44, 0 15.1 M0 45.29 C-0.05 36.62, -0.47 27.02, 0 15.1 M0 15.1 C-1.81 3.93, 4.61 -1.08, 15.1 0 M0 15.1 C2.19 4.38, 3.88 1.16, 15.1 0" stroke="#1e1e1e" stroke-width="2" fill="none"></path></g><g transform="translate(1434.366078934685 1364.8320438815904) rotate(0 74.09992980957031 12.5)"><text x="74.09992980957031" y="17.52" font-family="Virgil, Segoe UI Emoji" font-size="20px" fill="#1e1e1e" text-anchor="middle" style="white-space: pre;" direction="ltr" dominant-baseline="alphabetic">Sentence Chunk</text></g><g stroke-linecap="round"><g transform="translate(1365.0444707363995 1416.152911312288) rotate(0 -0.5391787143153124 -78.18091357571086)"><path d="M0.27 -0.83 C0.21 -27.05, -0.11 -131.39, -0.49 -157.27 M-1.05 1.34 C-1.2 -24.74, -1.38 -130.2, -1.13 -156.21" stroke="#1e1e1e" stroke-width="2" fill="none"></path></g><g transform="translate(1365.0444707363995 1416.152911312288) rotate(0 -0.5391787143153124 -78.18091357571086)"><path d="M7.35 -132.7 C3.5 -138.51, 0.92 -147.84, -1.13 -156.21 M7.35 -132.7 C5.06 -139.22, 2.73 -148.29, -1.13 -156.21" stroke="#1e1e1e" stroke-width="2" fill="none"></path></g><g transform="translate(1365.0444707363995 1416.152911312288) rotate(0 -0.5391787143153124 -78.18091357571086)"><path d="M-9.75 -132.75 C-8.64 -138.59, -6.28 -147.9, -1.13 -156.21 M-9.75 -132.75 C-6.62 -139.25, -3.54 -148.31, -1.13 -156.21" stroke="#1e1e1e" stroke-width="2" fill="none"></path></g></g><mask></mask><g stroke-linecap="round"><g transform="translate(1508.4660087442553 1335.276104165001) rotate(0 -40.43840357364354 -37.20333128775212)"><path d="M0.97 -0.05 C-9.91 -6.36, -52.58 -26.17, -66.26 -38.51 C-79.95 -50.86, -78.72 -68.18, -81.14 -74.12 M0.01 -1.12 C-10.88 -7.75, -53.23 -28.55, -66.9 -40.48 C-80.58 -52.4, -79.79 -67.24, -82.04 -72.66" stroke="#1e1e1e" stroke-width="2" fill="none"></path></g><g transform="translate(1508.4660087442553 1335.276104165001) rotate(0 -40.43840357364354 -37.20333128775212)"><path d="M-71.53 -56.68 C-73.78 -59.09, -75.48 -63.89, -82.04 -72.66 M-71.53 -56.68 C-74.43 -61.31, -77.95 -66.33, -82.04 -72.66" stroke="#1e1e1e" stroke-width="2" fill="none"></path></g><g transform="translate(1508.4660087442553 1335.276104165001) rotate(0 -40.43840357364354 -37.20333128775212)"><path d="M-84.26 -53.66 C-83.75 -56.83, -82.71 -62.28, -82.04 -72.66 M-84.26 -53.66 C-83.05 -59.29, -82.44 -65.29, -82.04 -72.66" stroke="#1e1e1e" stroke-width="2" fill="none"></path></g></g><mask></mask><g stroke-linecap="round"><g transform="translate(1216.2311455853915 1337.432819022262) rotate(0 47.447726859741806 -40.438403573643654)"><path d="M0.46 0.81 C13.14 -3.94, 60.25 -15.41, 75.86 -29.12 C91.46 -42.84, 90.78 -72.67, 94.08 -81.48 M-0.76 0.19 C12.33 -4.3, 61.98 -14.15, 78.2 -27.59 C94.41 -41.04, 93.52 -71.51, 96.54 -80.48" stroke="#1e1e1e" stroke-width="2" fill="none"></path></g><g transform="translate(1216.2311455853915 1337.432819022262) rotate(0 47.447726859741806 -40.438403573643654)"><path d="M100.95 -55.87 C101.18 -63.98, 98.57 -71.12, 96.54 -80.48 M100.95 -55.87 C99.54 -62.75, 98.66 -67.34, 96.54 -80.48" stroke="#1e1e1e" stroke-width="2" fill="none"></path></g><g transform="translate(1216.2311455853915 1337.432819022262) rotate(0 47.447726859741806 -40.438403573643654)"><path d="M84.1 -58.79 C89.07 -66.15, 91.23 -72.46, 96.54 -80.48 M84.1 -58.79 C86.92 -64.8, 90.25 -68.66, 96.54 -80.48" stroke="#1e1e1e" stroke-width="2" fill="none"></path></g></g><mask></mask><g mask="url(#mask-DZCpT4ZA4fqEUAa7gPs0z)" stroke-linecap="round"><g transform="translate(1366.1228281650301 937.3622130003484) rotate(0 0 95.43463243379875)"><path d="M0.78 0.8 C1.07 32.66, 1.37 160.1, 1.16 191.67 M-0.27 0.18 C0.01 31.66, 1.03 158.13, 0.82 189.96" stroke="#1e1e1e" stroke-width="2" fill="none"></path></g><g transform="translate(1366.1228281650301 937.3622130003484) rotate(0 0 95.43463243379875)"><path d="M-0.76 190.42 L-5.78 176.93 L7.06 176.08 L2.08 190.77" stroke="none" stroke-width="0" fill="#1e1e1e" fill-rule="evenodd"></path><path d="M0.82 189.96 C0.16 188.03, -1.45 182.57, -5.54 176.38 M0.82 189.96 C-0.86 187.05, -2.24 182.73, -5.54 176.38 M-5.54 176.38 C-0.94 175.88, 3.74 176.06, 7.14 176.36 M-5.54 176.38 C-2.38 175.76, 0.36 176.3, 7.14 176.36 M7.14 176.36 C4.72 180.23, 3.29 182.62, 0.82 189.96 M7.14 176.36 C5.06 180.11, 3.79 183.65, 0.82 189.96 M0.82 189.96 C0.82 189.96, 0.82 189.96, 0.82 189.96 M0.82 189.96 C0.82 189.96, 0.82 189.96, 0.82 189.96" stroke="#1e1e1e" stroke-width="2" fill="none"></path></g></g><mask id="mask-DZCpT4ZA4fqEUAa7gPs0z"><rect x="0" y="0" fill="#fff" width="1466.1228281650301" height="1228.231477867946"></rect><rect x="1278.0729319247957" y="1007.7968454341473" fill="#000" width="176.09979248046875" height="50" opacity="1"></rect></mask><g transform="translate(1278.0729319247957 1007.7968454341474) rotate(0 88.52878059532554 25.48900975465773)"><text x="88.04989624023438" y="17.52" font-family="Virgil, Segoe UI Emoji" font-size="20px" fill="#1e1e1e" text-anchor="middle" style="white-space: pre;" direction="ltr" dominant-baseline="alphabetic">Hierarchical Node </text><text x="88.04989624023438" y="42.519999999999996" font-family="Virgil, Segoe UI Emoji" font-size="20px" fill="#1e1e1e" text-anchor="middle" style="white-space: pre;" direction="ltr" dominant-baseline="alphabetic">Parsing</text></g><g transform="translate(894.5043433188207 1394.1532222427727) rotate(0 62.73426055908203 17.5)"><text x="0" y="24.528" font-family="Virgil, Segoe UI Emoji" font-size="28px" fill="#1e1e1e" text-anchor="start" style="white-space: pre;" direction="ltr" dominant-baseline="alphabetic">Weaviate</text></g><g transform="translate(1101.4163839025123 1175.90414885895) rotate(0 60.886253356933594 17.5)"><text x="0" y="24.528" font-family="Virgil, Segoe UI Emoji" font-size="28px" fill="#1e1e1e" text-anchor="start" style="white-space: pre;" direction="ltr" dominant-baseline="alphabetic">MongoDB</text></g><g stroke-linecap="round" transform="translate(394.4986076301843 338.853550460233) rotate(0 101.5965921367324 56.86853270546648)"><path d="M28.43 0 C87.79 0.03, 142.95 -5.79, 174.76 0 C196.71 3.22, 204.44 9.97, 203.19 28.43 C202.86 44.47, 201.55 64.4, 203.19 85.3 C206.72 102.47, 194.24 111.65, 174.76 113.74 C129.45 116.23, 90.07 114.49, 28.43 113.74 C9.33 114.34, -1.33 102.08, 0 85.3 C0.53 68.36, -3.74 53.05, 0 28.43 C-2.43 11.2, 8.2 3.28, 28.43 0" stroke="none" stroke-width="0" fill="#ffffff"></path><path d="M28.43 0 C67.74 1.07, 106.15 -1.74, 174.76 0 M28.43 0 C78.36 1.39, 129.74 1.5, 174.76 0 M174.76 0 C194.67 -1.82, 203.71 8.45, 203.19 28.43 M174.76 0 C194.45 1.24, 201.32 9.01, 203.19 28.43 M203.19 28.43 C201.56 47.4, 204.33 64.55, 203.19 85.3 M203.19 28.43 C202.6 42.24, 201.98 55.22, 203.19 85.3 M203.19 85.3 C205.14 105.21, 191.84 114.39, 174.76 113.74 M203.19 85.3 C202.7 103.15, 194.13 114.95, 174.76 113.74 M174.76 113.74 C132.97 111.49, 92.49 113.61, 28.43 113.74 M174.76 113.74 C140.54 114.52, 104.97 114.72, 28.43 113.74 M28.43 113.74 C10.58 112.61, -1.86 105.97, 0 85.3 M28.43 113.74 C9.38 113.92, 1.65 104.32, 0 85.3 M0 85.3 C1.59 67.22, 1.02 48.56, 0 28.43 M0 85.3 C0.66 71.21, 0.93 57.14, 0 28.43 M0 28.43 C-1.84 7.54, 10.62 1.55, 28.43 0 M0 28.43 C0.44 10.37, 11.54 -0.53, 28.43 0" stroke="#1e1e1e" stroke-width="2" fill="none"></path></g><g transform="translate(458.0290376575417 378.22208316569953) rotate(0 38.066162109375 17.5)"><text x="38.066162109375" y="24.528" font-family="Virgil, Segoe UI Emoji" font-size="28px" fill="#1e1e1e" text-anchor="middle" style="white-space: pre;" direction="ltr" dominant-baseline="alphabetic">Query</text></g><g stroke-linecap="round" transform="translate(392.58169079741583 650.033049646325) rotate(0 101.5965921367324 56.868532705466464)"><path d="M28.43 0 C83.91 0.46, 140.92 1.78, 174.76 0 C193.72 -1.31, 200.67 6.59, 203.19 28.43 C204.17 46.99, 200.96 67.75, 203.19 85.3 C206.32 101.32, 192.77 112.62, 174.76 113.74 C130.1 109.96, 85.14 113.27, 28.43 113.74 C7.63 110.39, 3.1 103.07, 0 85.3 C2.25 63.05, 1.77 45.29, 0 28.43 C-2.11 8.13, 6.2 -1.1, 28.43 0" stroke="none" stroke-width="0" fill="#ffffff"></path><path d="M28.43 0 C84.15 0.83, 141.15 3.02, 174.76 0 M28.43 0 C80.06 -1.12, 132.94 -0.63, 174.76 0 M174.76 0 C191.77 0.28, 201.59 11.11, 203.19 28.43 M174.76 0 C195.74 -1.03, 202.52 7.56, 203.19 28.43 M203.19 28.43 C204.1 50.22, 202.21 72.31, 203.19 85.3 M203.19 28.43 C203.88 49.2, 202.75 69.38, 203.19 85.3 M203.19 85.3 C204.13 103.59, 195.35 112.29, 174.76 113.74 M203.19 85.3 C204.97 102.79, 195.59 115.59, 174.76 113.74 M174.76 113.74 C132.19 113.38, 87.89 114.08, 28.43 113.74 M174.76 113.74 C120.85 113.43, 67.41 114.09, 28.43 113.74 M28.43 113.74 C9.35 114.15, -0.76 104.92, 0 85.3 M28.43 113.74 C7.56 115.61, 2 102.31, 0 85.3 M0 85.3 C1.13 71.7, -1.52 56.65, 0 28.43 M0 85.3 C-0.38 71.88, -0.75 57.62, 0 28.43 M0 28.43 C1.36 10.03, 11.23 -1.97, 28.43 0 M0 28.43 C-2.3 10.23, 7.48 -0.34, 28.43 0" stroke="#1e1e1e" stroke-width="2" fill="none"></path></g><g transform="translate(459.5421363887381 689.4015823517914) rotate(0 34.636146545410156 17.5)"><text x="34.636146545410156" y="24.528" font-family="Virgil, Segoe UI Emoji" font-size="28px" fill="#1e1e1e" text-anchor="middle" style="white-space: pre;" direction="ltr" dominant-baseline="alphabetic">HyDE</text></g><g stroke-linecap="round" transform="translate(397.69346901813185 26.396106718962102) rotate(0 101.59659213673245 56.86853270546648)"><path d="M28.43 0 C68.24 1.86, 113.32 -1.48, 174.76 0 M28.43 0 C71.67 0.64, 115.91 -0.29, 174.76 0 M174.76 0 C191.76 -0.13, 204.83 8.15, 203.19 28.43 M174.76 0 C192.13 0.54, 204.68 9.16, 203.19 28.43 M203.19 28.43 C202.61 42.31, 201.61 60.44, 203.19 85.3 M203.19 28.43 C202.7 47.16, 203 66.03, 203.19 85.3 M203.19 85.3 C201.74 105.12, 192.34 115.37, 174.76 113.74 M203.19 85.3 C204.42 104.25, 191.51 112.7, 174.76 113.74 M174.76 113.74 C123.82 114.89, 75.47 112.57, 28.43 113.74 M174.76 113.74 C133.23 112.54, 91.36 113.69, 28.43 113.74 M28.43 113.74 C7.61 112.71, -1.02 103.76, 0 85.3 M28.43 113.74 C7.21 115.49, -1.69 102.94, 0 85.3 M0 85.3 C2.05 62.2, 0.84 40.78, 0 28.43 M0 85.3 C0.26 63.28, 0.29 41.11, 0 28.43 M0 28.43 C0.77 11.36, 10.51 -1.02, 28.43 0 M0 28.43 C2.22 7.32, 8.11 -0.38, 28.43 0" stroke="#1e1e1e" stroke-width="2" fill="none"></path></g><g transform="translate(412.4756995825986 65.76463942442858) rotate(0 86.81436157226568 17.5)"><text x="86.81436157226562" y="24.528" font-family="Virgil, Segoe UI Emoji" font-size="28px" fill="#1e1e1e" text-anchor="middle" style="white-space: pre;" direction="ltr" dominant-baseline="alphabetic">Chat History</text></g><g mask="url(#mask-Bx13zynaw_7eNkOs143o_)" stroke-linecap="round"><g transform="translate(495.3639043029159 153.55158995927474) rotate(0 0.7153929882809962 82.42742380904696)"><path d="M-0.34 0.97 C-0.04 28.61, 0.72 138.76, 0.94 166.01 M1.68 0.44 C1.85 27.76, 0.02 136.96, -0.26 164.49" stroke="#1e1e1e" stroke-width="2" fill="none"></path></g><g transform="translate(495.3639043029159 153.55158995927474) rotate(0 0.7153929882809962 82.42742380904696)"><path d="M0.5 165.99 L-8.11 152.43 L6.62 151.8 L-0.44 163.42" stroke="none" stroke-width="0" fill="#1e1e1e" fill-rule="evenodd"></path><path d="M-0.26 164.49 C-0.48 160.72, -1.66 157.63, -6.41 150.82 M-0.26 164.49 C-2.27 161.07, -3.93 157.53, -6.41 150.82 M-6.41 150.82 C-1.17 150.1, 3.88 150.6, 6.26 150.99 M-6.41 150.82 C-1.62 151.17, 2.87 150.43, 6.26 150.99 M6.26 150.99 C4.39 153.51, 3.57 156.49, -0.26 164.49 M6.26 150.99 C5.73 154.63, 3 156.36, -0.26 164.49 M-0.26 164.49 C-0.26 164.49, -0.26 164.49, -0.26 164.49 M-0.26 164.49 C-0.26 164.49, -0.26 164.49, -0.26 164.49" stroke="#1e1e1e" stroke-width="2" fill="none"></path></g></g><mask id="mask-Bx13zynaw_7eNkOs143o_"><rect x="0" y="0" fill="#fff" width="596.7946902794779" height="418.40643757736865"></rect><rect x="358.01072429315013" y="218.4790137683217" fill="#000" width="276.13714599609375" height="35" opacity="1"></rect></mask><g transform="translate(358.01072429315013 218.4790137683217) rotate(0 138.0307028616159 18.296156516810882)"><text x="138.06857299804688" y="24.528" font-family="Virgil, Segoe UI Emoji" font-size="28px" fill="#1e1e1e" text-anchor="middle" style="white-space: pre;" direction="ltr" dominant-baseline="alphabetic">Condense into Query</text></g><g mask="url(#mask-yo1WDLcGQa0avLIV9ktnf)" stroke-linecap="round"><g transform="translate(659.088121296907 547.3120263780254) rotate(0 139.67946022150807 1.1331360505688792)"><path d="M-0.3 0.9 C46.14 1.38, 232.84 1.64, 279.31 1.96 M1.74 0.32 C47.97 1.07, 231.79 3.27, 278.33 3.33" stroke="#1e1e1e" stroke-width="2" fill="none"></path></g><g transform="translate(659.088121296907 547.3120263780254) rotate(0 139.67946022150807 1.1331360505688792)"><path d="M277.44 2.01 L263.12 8.25 L262.81 -4.76 L276.38 2.53" stroke="none" stroke-width="0" fill="#1e1e1e" fill-rule="evenodd"></path><path d="M278.33 3.33 C274.6 5.43, 268.3 6.63, 264.69 9.57 M278.33 3.33 C274.28 5.43, 269.1 7.34, 264.69 9.57 M264.69 9.57 C264.19 5.52, 265.57 3.46, 264.79 -3.11 M264.69 9.57 C264.56 5.86, 264.35 1.63, 264.79 -3.11 M264.79 -3.11 C268.06 -2.15, 270.52 -0.57, 278.33 3.33 M264.79 -3.11 C268.81 -0.87, 271.32 0.15, 278.33 3.33 M278.33 3.33 C278.33 3.33, 278.33 3.33, 278.33 3.33 M278.33 3.33 C278.33 3.33, 278.33 3.33, 278.33 3.33" stroke="#1e1e1e" stroke-width="2" fill="none"></path></g></g><mask id="mask-yo1WDLcGQa0avLIV9ktnf"><rect x="0" y="0" fill="#fff" width="1038.4470417399232" height="649.5782984791631"></rect><rect x="733.1493030149973" y="513.4451624285942" fill="#000" width="131.23655700683594" height="70" opacity="1"></rect></mask><g transform="translate(733.1493030149973 513.4451624285942) rotate(0 65.44028950147322 35.69256352506579)"><text x="65.61827850341797" y="24.528" font-family="Virgil, Segoe UI Emoji" font-size="28px" fill="#1e1e1e" text-anchor="middle" style="white-space: pre;" direction="ltr" dominant-baseline="alphabetic">Embedding</text><text x="65.61827850341797" y="59.528" font-family="Virgil, Segoe UI Emoji" font-size="28px" fill="#1e1e1e" text-anchor="middle" style="white-space: pre;" direction="ltr" dominant-baseline="alphabetic">Model</text></g><g stroke-linecap="round" transform="translate(954.6121323566078 482.7710098851415) rotate(0 111.61390098103334 67.42159500884765)"><path d="M32 0 C86.2 -1.78, 139.4 -3.18, 191.23 0 C215.06 3.09, 224.46 8.57, 223.23 32 C223.45 54.35, 220.33 74.17, 223.23 102.84 C221.78 124.76, 215.31 133.62, 191.23 134.84 C136.05 133.15, 83.33 130.93, 32 134.84 C9.58 135.54, -2.73 122.93, 0 102.84 C2.3 87.29, 1.8 73.03, 0 32 C0.17 13.97, 10.01 -1.72, 32 0" stroke="none" stroke-width="0" fill="#ffffff"></path><path d="M32 0 C92.39 2.5, 152.58 1.89, 191.23 0 M32 0 C77.94 1.55, 121.94 0.36, 191.23 0 M191.23 0 C214.52 -1.1, 222.94 11.92, 223.23 32 M191.23 0 C212.17 1.1, 224.24 12.83, 223.23 32 M223.23 32 C223.86 49.46, 222.52 69.21, 223.23 102.84 M223.23 32 C222.29 49.34, 222.22 64.68, 223.23 102.84 M223.23 102.84 C223.08 125.75, 212.7 134.73, 191.23 134.84 M223.23 102.84 C222.25 121.92, 210.41 133.24, 191.23 134.84 M191.23 134.84 C151.84 135.8, 114.11 133.52, 32 134.84 M191.23 134.84 C145.08 134.27, 100.02 135.12, 32 134.84 M32 134.84 C12.34 134.71, 0.83 122.78, 0 102.84 M32 134.84 C8.83 135.75, 1.94 122.82, 0 102.84 M0 102.84 C-0.98 80.1, 1.28 57.95, 0 32 M0 102.84 C0.89 77.78, 0.41 54.54, 0 32 M0 32 C1.02 10.15, 11.04 -1.79, 32 0 M0 32 C-2 11.66, 12.96 -1.52, 32 0" stroke="#1e1e1e" stroke-width="2" fill="none"></path></g><g transform="translate(977.5496493654732 532.6926048939891) rotate(0 88.67638397216797 17.5)"><text x="88.67638397216797" y="24.528" font-family="Virgil, Segoe UI Emoji" font-size="28px" fill="#1e1e1e" text-anchor="middle" style="white-space: pre;" direction="ltr" dominant-baseline="alphabetic">Query Vector</text></g><g stroke-linecap="round" transform="translate(1539.506365948174 481.16689425638214) rotate(0 111.61390098103345 67.42159500884765)"><path d="M32 0 C88.14 2.23, 142.06 -0.13, 191.23 0 C215.45 -2.59, 225.35 9.84, 223.23 32 C226.29 56.83, 222.69 88.71, 223.23 102.84 C222.41 127.5, 213.46 137.82, 191.23 134.84 C147.96 131.33, 100.25 132.33, 32 134.84 C7.29 136.37, 3.41 125.55, 0 102.84 C0.4 79.44, 0.26 62.15, 0 32 C0.79 7.97, 7.2 -2.26, 32 0" stroke="none" stroke-width="0" fill="#d0bfff"></path><path d="M32 0 C88.57 -1.53, 149.05 0.39, 191.23 0 M32 0 C80.64 -0.31, 128.79 0.05, 191.23 0 M191.23 0 C211.51 -0.1, 222.52 12.57, 223.23 32 M191.23 0 C212.31 1.22, 222.94 11.31, 223.23 32 M223.23 32 C223.09 57.53, 221.63 85.53, 223.23 102.84 M223.23 32 C223.77 51.75, 223.94 73.04, 223.23 102.84 M223.23 102.84 C223.22 125.67, 211.76 135.34, 191.23 134.84 M223.23 102.84 C224.38 126.07, 212.39 134.53, 191.23 134.84 M191.23 134.84 C155.37 137.13, 120.84 136.05, 32 134.84 M191.23 134.84 C145.01 134.95, 96.02 134.92, 32 134.84 M32 134.84 C12.29 135.28, 0.62 123.04, 0 102.84 M32 134.84 C12.92 136.43, -2.01 124.5, 0 102.84 M0 102.84 C-0.74 77.32, 0 50.09, 0 32 M0 102.84 C-1.03 81.93, 0.48 60.8, 0 32 M0 32 C1.85 9.45, 8.75 1.95, 32 0 M0 32 C1.59 9.99, 10.16 1.04, 32 0" stroke="#1e1e1e" stroke-width="2" fill="none"></path></g><g transform="translate(1611.122097983895 531.0884892652298) rotate(0 39.9981689453125 17.5)"><text x="39.9981689453125" y="24.528" font-family="Virgil, Segoe UI Emoji" font-size="28px" fill="#1e1e1e" text-anchor="middle" style="white-space: pre;" direction="ltr" dominant-baseline="alphabetic">Nodes</text></g><g stroke-linecap="round" transform="translate(1189.5862427211612 223.3168912519405) rotate(0 167.03136114195934 64.01109466171322)"><path d="M32 0 C126.16 -3.07, 219.62 -3.68, 302.06 0 C321.73 3.33, 333.03 12.31, 334.06 32 C334.88 58.92, 332.89 82.64, 334.06 96.02 C335.58 116.91, 326.31 130.75, 302.06 128.02 C227.46 124.52, 152.93 128.63, 32 128.02 C13.47 131.46, -2.71 118.9, 0 96.02 C-1.97 74.33, -1.77 59.38, 0 32 C0.8 12.35, 9.71 2.47, 32 0" stroke="none" stroke-width="0" fill="#ffffff"></path><path d="M32 0 C125.29 1.31, 217.24 1.71, 302.06 0 M32 0 C101.07 2.02, 169.17 2.56, 302.06 0 M302.06 0 C321.84 -0.44, 332.85 10.04, 334.06 32 M302.06 0 C322.63 1.72, 336.16 10.54, 334.06 32 M334.06 32 C335.93 49.08, 332.66 64.08, 334.06 96.02 M334.06 32 C335.59 47.14, 334.95 63.69, 334.06 96.02 M334.06 96.02 C335.28 118.69, 325.05 129.56, 302.06 128.02 M334.06 96.02 C336.04 117.24, 324.34 129.84, 302.06 128.02 M302.06 128.02 C203.46 131.02, 103.46 129.34, 32 128.02 M302.06 128.02 C217.52 129.7, 133.76 129.44, 32 128.02 M32 128.02 C12.28 128.71, -1.21 117.55, 0 96.02 M32 128.02 C11.44 128.41, 0.26 118.02, 0 96.02 M0 96.02 C1.53 80.13, 0.26 62.33, 0 32 M0 96.02 C0.56 76.5, 0.49 55.94, 0 32 M0 32 C-1.97 11.48, 11.72 -1.87, 32 0 M0 32 C0.92 11.74, 12.67 0.02, 32 0" stroke="#1e1e1e" stroke-width="2" fill="none"></path></g><g transform="translate(1200.2229352840188 269.8279859136537) rotate(0 156.39466857910156 17.500000000000007)"><text x="156.39466857910156" y="24.528" font-family="Virgil, Segoe UI Emoji" font-size="28px" fill="#1e1e1e" text-anchor="middle" style="white-space: pre;" direction="ltr" dominant-baseline="alphabetic">Auto-Merging Retriever</text></g><g stroke-linecap="round"><g transform="translate(1065.045315553911 460.67724655893534) rotate(0 57.87490144831031 -86.5382816537167)"><path d="M0.34 -0.38 C1.91 -25.64, -10.65 -122.66, 8.5 -151.35 C27.66 -180.04, 97.39 -169.09, 115.29 -172.52 M-0.95 -1.63 C0.66 -26.74, -11.03 -121.22, 8.17 -150.05 C27.38 -178.87, 96.27 -170.6, 114.28 -174.57" stroke="#1e1e1e" stroke-width="2" fill="none"></path></g><g transform="translate(1065.045315553911 460.67724655893534) rotate(0 57.87490144831031 -86.5382816537167)"><path d="M113.16 -173.3 L101.23 -168.81 L100.15 -181.86 L114.78 -174.52" stroke="none" stroke-width="0" fill="#1e1e1e" fill-rule="evenodd"></path><path d="M114.28 -174.57 C110.9 -171.49, 107.91 -171.96, 101.08 -167.44 M114.28 -174.57 C109.57 -171.28, 105.33 -170.23, 101.08 -167.44 M101.08 -167.44 C100.18 -171.52, 101.16 -176.48, 100.33 -180.1 M101.08 -167.44 C100.95 -170.05, 100.19 -173.04, 100.33 -180.1 M100.33 -180.1 C105.7 -178.72, 108.36 -176.02, 114.28 -174.57 M100.33 -180.1 C105 -177.4, 110.6 -175.61, 114.28 -174.57 M114.28 -174.57 C114.28 -174.57, 114.28 -174.57, 114.28 -174.57 M114.28 -174.57 C114.28 -174.57, 114.28 -174.57, 114.28 -174.57" stroke="#1e1e1e" stroke-width="2" fill="none"></path></g></g><mask></mask><g stroke-linecap="round"><g transform="translate(1541.2312135463387 284.85476114634656) rotate(0 57.142307759091295 89.37643008473259)"><path d="M0.14 1.13 C17.15 4.38, 84.03 -10.8, 103.22 18.85 C122.4 48.5, 113.46 152.24, 115.25 179.02 M-1.24 0.68 C15.56 4.17, 83.24 -9.68, 102.61 20.29 C121.99 50.25, 113.09 154.29, 115 180.48" stroke="#1e1e1e" stroke-width="2" fill="none"></path></g><g transform="translate(1541.2312135463387 284.85476114634656) rotate(0 57.142307759091295 89.37643008473259)"><path d="M116.54 178.94 L107.75 167.35 L121.7 165.28 L113.05 182" stroke="none" stroke-width="0" fill="#1e1e1e" fill-rule="evenodd"></path><path d="M115 180.48 C113.98 175.88, 109.81 170.85, 108.71 166.86 M115 180.48 C112.4 176.86, 110.78 171.74, 108.71 166.86 M108.71 166.86 C112.41 167.82, 116 167.03, 121.38 166.91 M108.71 166.86 C113.77 167.6, 117.2 167.17, 121.38 166.91 M121.38 166.91 C120.12 170.12, 117.32 173.76, 115 180.48 M121.38 166.91 C118.81 170.9, 117.07 174.61, 115 180.48 M115 180.48 C115 180.48, 115 180.48, 115 180.48 M115 180.48 C115 180.48, 115 180.48, 115 180.48" stroke="#1e1e1e" stroke-width="2" fill="none"></path></g></g><mask></mask><g mask="url(#mask--RMsKDv5P3pfJuvTUAlK8)" stroke-linecap="round"><g transform="translate(1024.4477919519788 1297.0748951886487) rotate(0 142.36294577901685 -463.3614556960025)"><path d="M-0.19 0.34 C8.91 -68.63, 6.19 -260.28, 53.6 -414.75 C101.02 -569.23, 245.6 -841.08, 284.29 -926.51 M-1.76 -0.52 C7.37 -69.21, 5.66 -259.18, 53.16 -413.27 C100.67 -567.37, 244.4 -839.54, 283.3 -925.09" stroke="#1e1e1e" stroke-width="2" fill="none"></path></g><g transform="translate(1024.4477919519788 1297.0748951886487) rotate(0 142.36294577901685 -463.3614556960025)"><path d="M-0.44 0.51 L-4.53 -14.45 L5.37 -13.97 L-1.08 -0.58" stroke="none" stroke-width="0" fill="#1e1e1e" fill-rule="evenodd"></path><path d="M-0.19 0.34 C-0.76 -1.46, -2.42 -6.22, -5.36 -13.74 M-0.19 0.34 C-2.19 -3.89, -3.08 -8.5, -5.36 -13.74 M-5.36 -13.74 C-1.73 -12.87, 2.18 -12.09, 7.27 -12.67 M-5.36 -13.74 C-1.94 -12.97, 0.92 -13, 7.27 -12.67 M7.27 -12.67 C5.2 -9.04, 4.18 -6.46, -0.19 0.34 M7.27 -12.67 C5.54 -9.01, 4.02 -5.48, -0.19 0.34 M-0.19 0.34 C-0.19 0.34, -0.19 0.34, -0.19 0.34 M-0.19 0.34 C-0.19 0.34, -0.19 0.34, -0.19 0.34" stroke="#1e1e1e" stroke-width="2" fill="none"></path></g><g transform="translate(1024.4477919519788 1297.0748951886487) rotate(0 142.36294577901685 -463.3614556960025)"><path d="M283.05 -924.92 L283.89 -910.8 L269.76 -916.93 L282.42 -926.01" stroke="none" stroke-width="0" fill="#1e1e1e" fill-rule="evenodd"></path><path d="M283.3 -925.09 C283.56 -920.67, 282.94 -919.22, 283.06 -910.09 M283.3 -925.09 C283.11 -920.06, 283.79 -915.44, 283.06 -910.09 M283.06 -910.09 C280.5 -910.95, 278.29 -911.85, 271.66 -915.63 M283.06 -910.09 C280.78 -910.79, 277.96 -912.39, 271.66 -915.63 M271.66 -915.63 C273.9 -916.82, 277.11 -919.21, 283.3 -925.09 M271.66 -915.63 C274.71 -917.69, 277.96 -919.76, 283.3 -925.09 M283.3 -925.09 C283.3 -925.09, 283.3 -925.09, 283.3 -925.09 M283.3 -925.09 C283.3 -925.09, 283.3 -925.09, 283.3 -925.09" stroke="#1e1e1e" stroke-width="2" fill="none"></path></g></g><mask id="mask--RMsKDv5P3pfJuvTUAlK8"><rect x="0" y="0" fill="#fff" width="1409.1736835100126" height="2323.7978065806537"></rect><rect x="956.0630266375645" y="847.4275616983734" fill="#000" width="242.0330047607422" height="70" opacity="1"></rect></mask><g transform="translate(956.0630266375645 847.4275616983734) rotate(0 209.65346822515676 -13.43848252085644)"><text x="121.0165023803711" y="24.528" font-family="Virgil, Segoe UI Emoji" font-size="28px" fill="#1e1e1e" text-anchor="middle" style="white-space: pre;" direction="ltr" dominant-baseline="alphabetic">Hybrid Search</text><text x="121.0165023803711" y="59.528" font-family="Virgil, Segoe UI Emoji" font-size="28px" fill="#1e1e1e" text-anchor="middle" style="white-space: pre;" direction="ltr" dominant-baseline="alphabetic">(Dense &amp; Sparse)</text></g><g stroke-linecap="round" transform="translate(2091.2632958913787 482.11771899220975) rotate(0 111.61390098103334 67.42159500884765)"><path d="M32 0 C90.66 3.34, 146.66 -1.82, 191.23 0 C209.47 0.83, 225.67 11.46, 223.23 32 C223.34 47.69, 219.27 62.21, 223.23 102.84 C220.09 123.98, 211.91 131.42, 191.23 134.84 C149.48 134.83, 101.47 138.59, 32 134.84 C12.17 135.56, -1.74 126.57, 0 102.84 C0.38 86.57, -1.61 73.29, 0 32 C3.59 12.49, 9.37 3.46, 32 0" stroke="none" stroke-width="0" fill="#d0bfff"></path><path d="M32 0 C85.56 -1.35, 133.74 -0.47, 191.23 0 M32 0 C69.77 -0.32, 107.43 -0.76, 191.23 0 M191.23 0 C212.96 -0.81, 224.02 12.17, 223.23 32 M191.23 0 C211.72 -0.97, 221.19 10.71, 223.23 32 M223.23 32 C222.03 51.82, 222.98 66.55, 223.23 102.84 M223.23 32 C223.87 52.04, 223.85 72.79, 223.23 102.84 M223.23 102.84 C221.61 125.34, 214.22 134.97, 191.23 134.84 M223.23 102.84 C221.52 124.65, 212.1 135.42, 191.23 134.84 M191.23 134.84 C157.48 135.08, 121.88 133.72, 32 134.84 M191.23 134.84 C159.14 137.09, 126.47 137.21, 32 134.84 M32 134.84 C10.98 133.18, -0.01 122.24, 0 102.84 M32 134.84 C9.77 135.84, 1 122.9, 0 102.84 M0 102.84 C-1.17 81.1, 2.07 58.53, 0 32 M0 102.84 C-0.06 78.92, 0.54 54.29, 0 32 M0 32 C-1.97 11.78, 12.35 1.72, 32 0 M0 32 C-1.49 9.1, 8.44 -1.47, 32 0" stroke="#1e1e1e" stroke-width="2" fill="none"></path></g><g transform="translate(2125.2188793064943 532.0393140010574) rotate(0 77.65831756591797 17.5)"><text x="77.65831756591797" y="24.528" font-family="Virgil, Segoe UI Emoji" font-size="28px" fill="#1e1e1e" text-anchor="middle" style="white-space: pre;" direction="ltr" dominant-baseline="alphabetic">Final Nodes</text></g><g mask="url(#mask-Im5PosK2d_zvNSqPe-d66)" stroke-linecap="round"><g transform="translate(1780.1416787588105 547.6763529810412) rotate(0 145.625 0)"><path d="M1.1 -0.14 C49.49 -0.4, 241.73 -0.83, 290.28 -0.8 M0.21 -1.26 C48.98 -1.45, 243.81 -0.12, 292.48 0.32" stroke="#1e1e1e" stroke-width="2" fill="none"></path></g><g transform="translate(1780.1416787588105 547.6763529810412) rotate(0 145.625 0)"><path d="M291.28 0.71 L278.55 7.69 L277.01 -7.39 L293.04 -1.56" stroke="none" stroke-width="0" fill="#1e1e1e" fill-rule="evenodd"></path><path d="M292.48 0.32 C288.36 1.05, 283.55 5.51, 278.84 6.55 M292.48 0.32 C288.89 2.23, 283.88 4.51, 278.84 6.55 M278.84 6.55 C280.04 2, 279.64 0.23, 278.94 -6.13 M278.84 6.55 C278.91 1.75, 278.53 -2.71, 278.94 -6.13 M278.94 -6.13 C281.16 -5.3, 285.19 -4.48, 292.48 0.32 M278.94 -6.13 C282.49 -3.81, 285.91 -3.32, 292.48 0.32 M292.48 0.32 C292.48 0.32, 292.48 0.32, 292.48 0.32 M292.48 0.32 C292.48 0.32, 292.48 0.32, 292.48 0.32" stroke="#1e1e1e" stroke-width="2" fill="none"></path></g></g><mask id="mask-Im5PosK2d_zvNSqPe-d66"><rect x="0" y="0" fill="#fff" width="2171.3916787588105" height="647.6763529810412"></rect><rect x="1819.072236009787" y="512.6763529810412" fill="#000" width="213.38888549804688" height="70" opacity="1"></rect></mask><g transform="translate(1819.072236009787 512.6763529810412) rotate(0 107.41758453125135 34.51769924764065)"><text x="106.69444274902344" y="24.528" font-family="Virgil, Segoe UI Emoji" font-size="28px" fill="#1e1e1e" text-anchor="middle" style="white-space: pre;" direction="ltr" dominant-baseline="alphabetic">Reranker</text><text x="106.69444274902344" y="59.528" font-family="Virgil, Segoe UI Emoji" font-size="28px" fill="#1e1e1e" text-anchor="middle" style="white-space: pre;" direction="ltr" dominant-baseline="alphabetic">(Cross-Encoder)</text></g><g stroke-linecap="round" transform="translate(2087.859705674202 15.708340793382092) rotate(0 111.61390098103334 67.42159500884765)"><path d="M32 0 C86.53 -1.55, 137.34 -1.83, 191.23 0 C213.92 2.53, 224.06 10.29, 223.23 32 C221.49 47.98, 226.76 63.59, 223.23 102.84 C221.45 124.54, 214.79 137.63, 191.23 134.84 C149.83 132.97, 108.79 134.11, 32 134.84 C11.11 132.3, 2.5 126.17, 0 102.84 C0.28 79.34, -1.4 61.35, 0 32 C-2.56 9.79, 9.61 0.27, 32 0" stroke="none" stroke-width="0" fill="#ffc9c9"></path><path d="M32 0 C80.04 -0.94, 129.23 -1.75, 191.23 0 M32 0 C80.4 -1.15, 126.41 -0.9, 191.23 0 M191.23 0 C212.15 1.43, 222.02 8.85, 223.23 32 M191.23 0 C214.72 -0.37, 223.99 10.64, 223.23 32 M223.23 32 C223.53 54.37, 224.47 76.69, 223.23 102.84 M223.23 32 C224.7 54.11, 222.98 76.69, 223.23 102.84 M223.23 102.84 C225.14 123.94, 212.4 134.03, 191.23 134.84 M223.23 102.84 C220.95 122.99, 212.54 134.08, 191.23 134.84 M191.23 134.84 C139.6 136.65, 89.9 135.29, 32 134.84 M191.23 134.84 C156.87 134.31, 121.97 134.34, 32 134.84 M32 134.84 C9.31 136.32, 1.67 123.82, 0 102.84 M32 134.84 C10.28 133.43, 2.02 122.19, 0 102.84 M0 102.84 C1.25 80.47, 2.07 61.68, 0 32 M0 102.84 C-1.38 83.02, -1.26 62.47, 0 32 M0 32 C-1 10.57, 10.21 -0.04, 32 0 M0 32 C-0.73 10.92, 12.03 -1.86, 32 0" stroke="#1e1e1e" stroke-width="2" fill="none"></path></g><g transform="translate(2171.9774976464464 65.62993580222968) rotate(0 27.496109008789062 17.5)"><text x="27.496109008789062" y="24.528" font-family="Virgil, Segoe UI Emoji" font-size="28px" fill="#1e1e1e" text-anchor="middle" style="white-space: pre;" direction="ltr" dominant-baseline="alphabetic">LLM</text></g><g stroke-linecap="round" transform="translate(10 495.0325357499715) rotate(0 111.61390098103334 67.42159500884765)"><path d="M32 0 C75.92 0.86, 120.51 -4.34, 191.23 0 C214.18 2.81, 224.1 12.83, 223.23 32 C222.25 59.51, 226.41 83.51, 223.23 102.84 C225.13 126.54, 209.4 136.15, 191.23 134.84 C157.69 129.98, 121.71 133.38, 32 134.84 C12.72 132.93, -0.67 123.05, 0 102.84 C1.87 87.4, -1.61 64.1, 0 32 C1.69 11.95, 11.28 -1.7, 32 0" stroke="none" stroke-width="0" fill="#ffc9c9"></path><path d="M32 0 C85.59 -2.33, 140.76 -2.03, 191.23 0 M32 0 C69.66 -1.73, 105.74 -0.61, 191.23 0 M191.23 0 C214.11 -0.97, 222.95 11.86, 223.23 32 M191.23 0 C211.68 -2.29, 221.7 9.1, 223.23 32 M223.23 32 C223.84 54.41, 223.4 75.71, 223.23 102.84 M223.23 32 C223.85 53.93, 222.75 77, 223.23 102.84 M223.23 102.84 C223.38 122.2, 211.78 135.14, 191.23 134.84 M223.23 102.84 C223.23 123.46, 211.47 133.84, 191.23 134.84 M191.23 134.84 C129.92 133.72, 69.9 135.26, 32 134.84 M191.23 134.84 C133.97 135.54, 76.69 136.34, 32 134.84 M32 134.84 C11.89 134.45, 1.26 125.13, 0 102.84 M32 134.84 C11 135.53, -0.11 123.05, 0 102.84 M0 102.84 C-0.86 77.15, 1.57 49.32, 0 32 M0 102.84 C0.84 77.77, -0.3 53.77, 0 32 M0 32 C0.66 9.18, 8.79 -1.05, 32 0 M0 32 C0.54 12.71, 9.92 0.06, 32 0" stroke="#1e1e1e" stroke-width="2" fill="none"></path></g><g transform="translate(94.1177919722445 544.954130758819) rotate(0 27.496109008789062 17.5)"><text x="27.496109008789062" y="24.528" font-family="Virgil, Segoe UI Emoji" font-size="28px" fill="#1e1e1e" text-anchor="middle" style="white-space: pre;" direction="ltr" dominant-baseline="alphabetic">LLM</text></g><g stroke-linecap="round"><g transform="translate(382.80834542547757 390.7596863143746) rotate(0 -134.9353757519396 42.15277777777777)"><path d="M0.01 0.68 C-39.92 1.51, -193.95 -9.01, -238.85 4.86 C-283.76 18.74, -264.11 70.64, -269.42 83.91 M-1.45 -0.01 C-41.53 0.95, -194.67 -8.28, -239.42 5.89 C-284.17 20.07, -264.7 71.72, -269.94 85.03" stroke="#1e1e1e" stroke-width="2" fill="none"></path></g><g transform="translate(382.80834542547757 390.7596863143746) rotate(0 -134.9353757519396 42.15277777777777)"><path d="M-271.88 83.84 L-277.54 73.08 L-264.6 69.77 L-271.21 85.9" stroke="none" stroke-width="0" fill="#1e1e1e" fill-rule="evenodd"></path><path d="M-269.94 85.03 C-271.24 81.03, -275.46 75.77, -275.98 71.3 M-269.94 85.03 C-272.09 82.02, -273.02 78.31, -275.98 71.3 M-275.98 71.3 C-271.33 72.56, -266.16 71.48, -263.31 71.58 M-275.98 71.3 C-272.91 70.97, -269.61 71.02, -263.31 71.58 M-263.31 71.58 C-265.61 76.17, -265.89 80.9, -269.94 85.03 M-263.31 71.58 C-265.72 76.1, -269.01 81.62, -269.94 85.03 M-269.94 85.03 C-269.94 85.03, -269.94 85.03, -269.94 85.03 M-269.94 85.03 C-269.94 85.03, -269.94 85.03, -269.94 85.03" stroke="#1e1e1e" stroke-width="2" fill="none"></path></g></g><mask></mask><g stroke-linecap="round"><g transform="translate(115.47668675919067 648.6763529810412) rotate(0 130.33249599981013 31.59722222222223)"><path d="M-0.9 -0.64 C4.16 8.15, -12.34 41.41, 31.32 52 C74.98 62.58, 222.84 60.87, 261.06 62.87 M0.83 1.64 C5.72 10.14, -12.45 39.78, 30.83 50.18 C74.1 60.57, 222.17 62.07, 260.5 64.02" stroke="#1e1e1e" stroke-width="2" fill="none"></path></g><g transform="translate(115.47668675919067 648.6763529810412) rotate(0 130.33249599981013 31.59722222222223)"><path d="M262.42 64.69 L246.66 68.82 L247.52 57.14 L262.41 62.88" stroke="none" stroke-width="0" fill="#1e1e1e" fill-rule="evenodd"></path><path d="M260.5 64.02 C254.38 67.27, 250.63 68.92, 246.71 69.92 M260.5 64.02 C256.78 65.47, 253.4 67.07, 246.71 69.92 M246.71 69.92 C247.7 65.87, 247.23 61.15, 247.11 57.24 M246.71 69.92 C246.73 66.73, 246.77 62.43, 247.11 57.24 M247.11 57.24 C250.26 60.52, 257.62 61.04, 260.5 64.02 M247.11 57.24 C251.28 59.81, 256.1 62.28, 260.5 64.02 M260.5 64.02 C260.5 64.02, 260.5 64.02, 260.5 64.02 M260.5 64.02 C260.5 64.02, 260.5 64.02, 260.5 64.02" stroke="#1e1e1e" stroke-width="2" fill="none"></path></g></g><mask></mask><g mask="url(#mask-o9ogirjefn03C3VQXR6Ry)" stroke-linecap="round"><g transform="translate(615.8931510173879 79.84032270043036) rotate(0 725.0211438836654 1.0902573592235285)"><path d="M0.5 -0.65 C242 -0.31, 1207.15 2.52, 1448.9 2.88 M-0.7 1.63 C241.17 1.55, 1209.1 0.98, 1451 1.12" stroke="#1e1e1e" stroke-width="2" fill="none"></path></g><g transform="translate(615.8931510173879 79.84032270043036) rotate(0 725.0211438836654 1.0902573592235285)"><path d="M1452.44 2.39 L1439.24 6.22 L1436.14 -6.6 L1449.29 1.51" stroke="none" stroke-width="0" fill="#1e1e1e" fill-rule="evenodd"></path><path d="M1451 1.12 C1446.3 1.58, 1444.04 6.04, 1437.41 7.46 M1451 1.12 C1448.13 2.24, 1444.88 4.35, 1437.41 7.46 M1437.41 7.46 C1437.5 1.99, 1436.78 -0.1, 1437.41 -5.22 M1437.41 7.46 C1437.33 5.1, 1437.86 2.25, 1437.41 -5.22 M1437.41 -5.22 C1440.26 -2.05, 1445.56 -0.16, 1451 1.12 M1437.41 -5.22 C1442.53 -2.5, 1447.57 -0.55, 1451 1.12 M1451 1.12 C1451 1.12, 1451 1.12, 1451 1.12 M1451 1.12 C1451 1.12, 1451 1.12, 1451 1.12" stroke="#1e1e1e" stroke-width="2" fill="none"></path></g></g><mask id="mask-o9ogirjefn03C3VQXR6Ry"><rect x="0" y="0" fill="#fff" width="2165.935438784719" height="182.02083741887742"></rect><rect x="1254.393939676444" y="63.43058005965389" fill="#000" width="173.04071044921875" height="35" opacity="1"></rect></mask><g transform="translate(1254.393939676444 63.43058005965389) rotate(0 86.65376973219213 17.523465492203833)"><text x="86.52035522460938" y="24.528" font-family="Virgil, Segoe UI Emoji" font-size="28px" fill="#1e1e1e" text-anchor="middle" style="white-space: pre;" direction="ltr" dominant-baseline="alphabetic">Conversation</text></g><g mask="url(#mask-moHpVZM1jpePIWiDLHjtw)" stroke-linecap="round"><g transform="translate(2203.3078660468873 461.43039842867523) rotate(0 -3.270772077670699 -147.18474349518016)"><path d="M-1.14 1.02 C-2.1 -47.93, -4.51 -245.54, -5.34 -294.65 M0.46 0.51 C-0.59 -48.18, -4.47 -243.9, -5.66 -293.25" stroke="#1e1e1e" stroke-width="2" fill="none"></path></g><g transform="translate(2203.3078660468873 461.43039842867523) rotate(0 -3.270772077670699 -147.18474349518016)"><path d="M-5.1 -294.92 L1.86 -279.97 L-11.9 -279.77 L-5.05 -291.75" stroke="none" stroke-width="0" fill="#1e1e1e" fill-rule="evenodd"></path><path d="M-5.66 -293.25 C-2.28 -287.21, -1.69 -283.72, 0.97 -279.8 M-5.66 -293.25 C-3.27 -287.83, -1.37 -283.12, 0.97 -279.8 M0.97 -279.8 C-4.09 -279.8, -7.64 -279.53, -11.71 -279.53 M0.97 -279.8 C-1.51 -279.51, -3.97 -279.53, -11.71 -279.53 M-11.71 -279.53 C-8.9 -285.72, -6.61 -288.05, -5.66 -293.25 M-11.71 -279.53 C-9.52 -283.61, -7.05 -289.59, -5.66 -293.25 M-5.66 -293.25 C-5.66 -293.25, -5.66 -293.25, -5.66 -293.25 M-5.66 -293.25 C-5.66 -293.25, -5.66 -293.25, -5.66 -293.25" stroke="#1e1e1e" stroke-width="2" fill="none"></path></g></g><mask id="mask-moHpVZM1jpePIWiDLHjtw"><rect x="0" y="0" fill="#fff" width="2309.8494102022287" height="855.7998854190355"></rect><rect x="2145.3808592280056" y="296.7456549334951" fill="#000" width="109.31246948242188" height="35" opacity="1"></rect></mask><g transform="translate(2145.3808592280056 296.7456549334951) rotate(0 55.324053195360875 17.872911230847222)"><text x="54.65623474121094" y="24.528" font-family="Virgil, Segoe UI Emoji" font-size="28px" fill="#1e1e1e" text-anchor="middle" style="white-space: pre;" direction="ltr" dominant-baseline="alphabetic">Context</text></g><g stroke-linecap="round"><g transform="translate(2328.876976684589 81.0019276447826) rotate(0 90.40339905735755 0.8950831589837094)"><path d="M0.17 1.12 C30.37 1.4, 151.23 1.83, 181.2 1.99 M-1.21 0.66 C28.87 0.53, 149.84 -0.51, 180.46 -0.03" stroke="#1e1e1e" stroke-width="2" fill="none"></path></g><g transform="translate(2328.876976684589 81.0019276447826) rotate(0 90.40339905735755 0.8950831589837094)"><path d="M179 -0.76 L166.56 6.86 L167.81 -7.7 L179.75 -0.22" stroke="none" stroke-width="0" fill="#1e1e1e" fill-rule="evenodd"></path><path d="M180.46 -0.03 C177.8 2.38, 172.57 2.79, 166.86 6.28 M180.46 -0.03 C176.82 1.51, 171.3 3.73, 166.86 6.28 M166.86 6.28 C168.17 4.25, 167.69 1.88, 166.88 -6.39 M166.86 6.28 C166.83 1.93, 166.37 -1.91, 166.88 -6.39 M166.88 -6.39 C172.09 -3.72, 174.36 -1.21, 180.46 -0.03 M166.88 -6.39 C170.75 -4.34, 175.17 -2.66, 180.46 -0.03 M180.46 -0.03 C180.46 -0.03, 180.46 -0.03, 180.46 -0.03 M180.46 -0.03 C180.46 -0.03, 180.46 -0.03, 180.46 -0.03" stroke="#1e1e1e" stroke-width="2" fill="none"></path></g></g><mask></mask><g stroke-linecap="round" transform="translate(2534.1225139837984 10) rotate(0 111.61390098103334 67.42159500884765)"><path d="M32 0 C70.14 -0.64, 106.92 -3.45, 191.23 0 C212.84 2.99, 222.18 11.07, 223.23 32 C219.92 60.89, 224.64 85.91, 223.23 102.84 C226.51 120.66, 209.69 132.23, 191.23 134.84 C131.19 135.91, 69.59 139.01, 32 134.84 C11.06 133.84, 2.94 124.42, 0 102.84 C2.6 82.86, 2.4 65.4, 0 32 C-1.7 11.01, 11.99 -0.39, 32 0" stroke="none" stroke-width="0" fill="#ffffff"></path><path d="M32 0 C86.93 0.77, 144.22 -1.52, 191.23 0 M32 0 C69.7 0.6, 107.83 0.91, 191.23 0 M191.23 0 C214.01 -0.67, 222.12 12.2, 223.23 32 M191.23 0 C214.63 0.37, 224.7 8.89, 223.23 32 M223.23 32 C222.98 59.81, 224.01 83.66, 223.23 102.84 M223.23 32 C222.73 46.81, 221.68 60.35, 223.23 102.84 M223.23 102.84 C221.54 123.78, 211.91 133.54, 191.23 134.84 M223.23 102.84 C223.33 122.81, 213.13 133.33, 191.23 134.84 M191.23 134.84 C134.02 136.27, 78.12 134.65, 32 134.84 M191.23 134.84 C141.85 133.95, 93.24 134.48, 32 134.84 M32 134.84 C10.99 134.6, -1.11 122.68, 0 102.84 M32 134.84 C11.52 136.71, -1.52 122.88, 0 102.84 M0 102.84 C1.13 82.81, -0.72 61.61, 0 32 M0 102.84 C-1.52 82.91, -1 62.57, 0 32 M0 32 C1.97 9.92, 12.35 -1.19, 32 0 M0 32 C-1.19 11.44, 12.24 -1.51, 32 0" stroke="#1e1e1e" stroke-width="2" fill="none"></path></g><g transform="translate(2584.5281553823124 59.921595008847646) rotate(0 61.20825958251953 17.5)"><text x="61.20825958251953" y="24.528" font-family="Virgil, Segoe UI Emoji" font-size="28px" fill="#1e1e1e" text-anchor="middle" style="white-space: pre;" direction="ltr" dominant-baseline="alphabetic">Response</text></g><g stroke-linecap="round"><g transform="translate(669.379554784693 326.9328936273504) rotate(0 254.32453637451715 -33.40381970292165)"><path d="M0.16 -0.32 C41.63 -10.85, 163.75 -52.06, 248.68 -63.15 C333.6 -74.24, 466.4 -66.34, 509.72 -66.88 M-1.22 -1.53 C40.08 -11.93, 162.43 -51.41, 247.55 -62.08 C332.68 -72.76, 465.97 -65.11, 509.51 -65.6" stroke="#1e1e1e" stroke-width="2" fill="none"></path></g><g transform="translate(669.379554784693 326.9328936273504) rotate(0 254.32453637451715 -33.40381970292165)"><path d="M510.33 -64.13 L496.66 -59.11 L494.27 -72.61 L510.35 -66.35" stroke="none" stroke-width="0" fill="#1e1e1e" fill-rule="evenodd"></path><path d="M509.51 -65.6 C505.18 -64.24, 500.52 -60.74, 495.81 -59.5 M509.51 -65.6 C504.73 -63.69, 501.95 -61.67, 495.81 -59.5 M495.81 -59.5 C496.42 -62.87, 496.69 -66.96, 496.03 -72.17 M495.81 -59.5 C496.45 -64.46, 495.71 -68.91, 496.03 -72.17 M496.03 -72.17 C501.15 -68.7, 503.86 -68.52, 509.51 -65.6 M496.03 -72.17 C498.87 -70.69, 502.15 -68.77, 509.51 -65.6 M509.51 -65.6 C509.51 -65.6, 509.51 -65.6, 509.51 -65.6 M509.51 -65.6 C509.51 -65.6, 509.51 -65.6, 509.51 -65.6" stroke="#1e1e1e" stroke-width="2" fill="none"></path></g></g><mask></mask></svg>